<mxfile host="app.diagrams.net" agent="Mozilla/5.0 (Macintosh; Intel Mac OS X 10_15_7) AppleWebKit/537.36 (KHTML, like Gecko) Chrome/135.0.0.0 Safari/537.36" version="26.2.13">
  <diagram name="Page-1" id="DRaX8vh2XQgeKRl0MnYT">
    <mxGraphModel dx="1208" dy="1537" grid="1" gridSize="10" guides="1" tooltips="1" connect="1" arrows="1" fold="1" page="0" pageScale="1" pageWidth="850" pageHeight="1100" background="light-dark(#000000,#000000)" math="0" shadow="0">
      <root>
        <mxCell id="0" />
        <mxCell id="1" parent="0" />
        <mxCell id="w3yPP5Zh4euitOC8Kssg-5" style="edgeStyle=none;curved=1;rounded=0;orthogonalLoop=1;jettySize=auto;html=1;exitX=0.5;exitY=0.5;exitDx=0;exitDy=0;exitPerimeter=0;entryX=0.5;entryY=0;entryDx=0;entryDy=0;fontSize=12;startSize=8;endSize=8;" edge="1" parent="1" source="w3yPP5Zh4euitOC8Kssg-1" target="w3yPP5Zh4euitOC8Kssg-3">
          <mxGeometry relative="1" as="geometry" />
        </mxCell>
        <mxCell id="w3yPP5Zh4euitOC8Kssg-1" value="Actor" style="shape=umlActor;verticalLabelPosition=bottom;verticalAlign=top;html=1;" vertex="1" parent="1">
          <mxGeometry x="745" y="-60" width="80" height="100" as="geometry" />
        </mxCell>
        <mxCell id="w3yPP5Zh4euitOC8Kssg-176" value="" style="edgeStyle=none;curved=1;rounded=0;orthogonalLoop=1;jettySize=auto;html=1;fontSize=12;startSize=8;endSize=8;" edge="1" parent="1" source="w3yPP5Zh4euitOC8Kssg-3" target="w3yPP5Zh4euitOC8Kssg-12">
          <mxGeometry relative="1" as="geometry" />
        </mxCell>
        <mxCell id="w3yPP5Zh4euitOC8Kssg-3" value="" style="image;aspect=fixed;perimeter=ellipsePerimeter;html=1;align=center;shadow=0;dashed=0;spacingTop=3;image=img/lib/active_directory/internet_cloud.svg;" vertex="1" parent="1">
          <mxGeometry x="730" y="140" width="110" height="69.3" as="geometry" />
        </mxCell>
        <mxCell id="w3yPP5Zh4euitOC8Kssg-12" value="AWS Cloud" style="sketch=0;outlineConnect=0;gradientColor=none;html=1;whiteSpace=wrap;fontSize=12;fontStyle=0;shape=mxgraph.aws4.group;grIcon=mxgraph.aws4.group_aws_cloud;strokeColor=#AAB7B8;fillColor=none;verticalAlign=top;align=left;spacingLeft=30;fontColor=#AAB7B8;dashed=0;" vertex="1" parent="1">
          <mxGeometry x="30" y="280" width="1530" height="700" as="geometry" />
        </mxCell>
        <mxCell id="w3yPP5Zh4euitOC8Kssg-16" value="VPC" style="points=[[0,0],[0.25,0],[0.5,0],[0.75,0],[1,0],[1,0.25],[1,0.5],[1,0.75],[1,1],[0.75,1],[0.5,1],[0.25,1],[0,1],[0,0.75],[0,0.5],[0,0.25]];outlineConnect=0;gradientColor=none;html=1;whiteSpace=wrap;fontSize=12;fontStyle=0;container=1;pointerEvents=0;collapsible=0;recursiveResize=0;shape=mxgraph.aws4.group;grIcon=mxgraph.aws4.group_vpc2;strokeColor=#8C4FFF;fillColor=none;verticalAlign=top;align=left;spacingLeft=30;fontColor=#AAB7B8;dashed=0;" vertex="1" parent="1">
          <mxGeometry x="70" y="390" width="640" height="520" as="geometry" />
        </mxCell>
        <mxCell id="w3yPP5Zh4euitOC8Kssg-17" value="Region" style="points=[[0,0],[0.25,0],[0.5,0],[0.75,0],[1,0],[1,0.25],[1,0.5],[1,0.75],[1,1],[0.75,1],[0.5,1],[0.25,1],[0,1],[0,0.75],[0,0.5],[0,0.25]];outlineConnect=0;gradientColor=none;html=1;whiteSpace=wrap;fontSize=12;fontStyle=0;container=1;pointerEvents=0;collapsible=0;recursiveResize=0;shape=mxgraph.aws4.group;grIcon=mxgraph.aws4.group_region;strokeColor=#00A4A6;fillColor=none;verticalAlign=top;align=left;spacingLeft=30;fontColor=#147EBA;dashed=1;" vertex="1" parent="1">
          <mxGeometry x="50" y="330" width="700" height="620" as="geometry" />
        </mxCell>
        <mxCell id="w3yPP5Zh4euitOC8Kssg-19" value="Availability zone" style="sketch=0;outlineConnect=0;gradientColor=none;html=1;whiteSpace=wrap;fontSize=12;fontStyle=0;shape=mxgraph.aws4.group;grIcon=mxgraph.aws4.group_availability_zone;strokeColor=#545B64;fillColor=none;verticalAlign=top;align=left;spacingLeft=30;fontColor=#545B64;dashed=1;" vertex="1" parent="w3yPP5Zh4euitOC8Kssg-17">
          <mxGeometry x="70" y="110" width="560" height="200" as="geometry" />
        </mxCell>
        <mxCell id="w3yPP5Zh4euitOC8Kssg-20" value="Availability zone" style="sketch=0;outlineConnect=0;gradientColor=none;html=1;whiteSpace=wrap;fontSize=12;fontStyle=0;shape=mxgraph.aws4.group;grIcon=mxgraph.aws4.group_availability_zone;strokeColor=#545B64;fillColor=none;verticalAlign=top;align=left;spacingLeft=30;fontColor=#545B64;dashed=1;" vertex="1" parent="w3yPP5Zh4euitOC8Kssg-17">
          <mxGeometry x="70" y="340" width="560" height="200" as="geometry" />
        </mxCell>
        <mxCell id="w3yPP5Zh4euitOC8Kssg-21" value="Public subnet" style="points=[[0,0],[0.25,0],[0.5,0],[0.75,0],[1,0],[1,0.25],[1,0.5],[1,0.75],[1,1],[0.75,1],[0.5,1],[0.25,1],[0,1],[0,0.75],[0,0.5],[0,0.25]];outlineConnect=0;gradientColor=none;html=1;whiteSpace=wrap;fontSize=12;fontStyle=0;container=1;pointerEvents=0;collapsible=0;recursiveResize=0;shape=mxgraph.aws4.group;grIcon=mxgraph.aws4.group_security_group;grStroke=0;strokeColor=#7AA116;fillColor=#F2F6E8;verticalAlign=top;align=left;spacingLeft=30;fontColor=#248814;dashed=0;" vertex="1" parent="w3yPP5Zh4euitOC8Kssg-17">
          <mxGeometry x="110" y="150" width="240" height="140" as="geometry" />
        </mxCell>
        <mxCell id="w3yPP5Zh4euitOC8Kssg-25" value="" style="outlineConnect=0;dashed=0;verticalLabelPosition=bottom;verticalAlign=top;align=center;html=1;shape=mxgraph.aws3.cloud_2;fillColor=#F58534;gradientColor=none;" vertex="1" parent="w3yPP5Zh4euitOC8Kssg-21">
          <mxGeometry x="30" y="45" width="50" height="50" as="geometry" />
        </mxCell>
        <mxCell id="w3yPP5Zh4euitOC8Kssg-23" value="Private subnet" style="points=[[0,0],[0.25,0],[0.5,0],[0.75,0],[1,0],[1,0.25],[1,0.5],[1,0.75],[1,1],[0.75,1],[0.5,1],[0.25,1],[0,1],[0,0.75],[0,0.5],[0,0.25]];outlineConnect=0;gradientColor=none;html=1;whiteSpace=wrap;fontSize=12;fontStyle=0;container=1;pointerEvents=0;collapsible=0;recursiveResize=0;shape=mxgraph.aws4.group;grIcon=mxgraph.aws4.group_security_group;grStroke=0;strokeColor=#00A4A6;fillColor=#E6F6F7;verticalAlign=top;align=left;spacingLeft=30;fontColor=#147EBA;dashed=0;" vertex="1" parent="w3yPP5Zh4euitOC8Kssg-17">
          <mxGeometry x="360" y="150" width="233" height="140" as="geometry" />
        </mxCell>
        <mxCell id="w3yPP5Zh4euitOC8Kssg-28" value="" style="edgeStyle=none;curved=1;rounded=0;orthogonalLoop=1;jettySize=auto;html=1;fontSize=12;startSize=8;endSize=8;" edge="1" parent="w3yPP5Zh4euitOC8Kssg-23" source="w3yPP5Zh4euitOC8Kssg-29">
          <mxGeometry relative="1" as="geometry">
            <mxPoint x="150" y="71" as="targetPoint" />
          </mxGeometry>
        </mxCell>
        <mxCell id="w3yPP5Zh4euitOC8Kssg-26" value="" style="outlineConnect=0;dashed=0;verticalLabelPosition=bottom;verticalAlign=top;align=center;html=1;shape=mxgraph.aws3.traditional_server;fillColor=#7D7C7C;gradientColor=none;" vertex="1" parent="w3yPP5Zh4euitOC8Kssg-23">
          <mxGeometry x="20" y="39" width="46.5" height="63" as="geometry" />
        </mxCell>
        <mxCell id="w3yPP5Zh4euitOC8Kssg-27" value="" style="outlineConnect=0;dashed=0;verticalLabelPosition=bottom;verticalAlign=top;align=center;html=1;shape=mxgraph.aws3.traditional_server;fillColor=#7D7C7C;gradientColor=none;" vertex="1" parent="w3yPP5Zh4euitOC8Kssg-23">
          <mxGeometry x="170" y="38.5" width="46.5" height="63" as="geometry" />
        </mxCell>
        <mxCell id="w3yPP5Zh4euitOC8Kssg-29" value="" style="outlineConnect=0;dashed=0;verticalLabelPosition=bottom;verticalAlign=top;align=center;html=1;shape=mxgraph.aws3.traditional_server;fillColor=#7D7C7C;gradientColor=none;" vertex="1" parent="w3yPP5Zh4euitOC8Kssg-23">
          <mxGeometry x="100" y="38.5" width="46.5" height="63" as="geometry" />
        </mxCell>
        <mxCell id="w3yPP5Zh4euitOC8Kssg-24" value="" style="outlineConnect=0;dashed=0;verticalLabelPosition=bottom;verticalAlign=top;align=center;html=1;shape=mxgraph.aws3.classic_load_balancer;fillColor=#F58534;gradientColor=none;" vertex="1" parent="w3yPP5Zh4euitOC8Kssg-17">
          <mxGeometry x="250" y="192.5" width="60" height="55" as="geometry" />
        </mxCell>
        <mxCell id="w3yPP5Zh4euitOC8Kssg-33" value="" style="edgeStyle=none;curved=1;rounded=0;orthogonalLoop=1;jettySize=auto;html=1;fontSize=12;startSize=8;endSize=8;" edge="1" parent="w3yPP5Zh4euitOC8Kssg-17" source="w3yPP5Zh4euitOC8Kssg-25" target="w3yPP5Zh4euitOC8Kssg-24">
          <mxGeometry relative="1" as="geometry" />
        </mxCell>
        <mxCell id="w3yPP5Zh4euitOC8Kssg-34" value="Bastion Host" style="text;strokeColor=none;fillColor=none;html=1;align=center;verticalAlign=middle;whiteSpace=wrap;rounded=0;fontSize=16;" vertex="1" parent="w3yPP5Zh4euitOC8Kssg-17">
          <mxGeometry x="110" y="247.5" width="110" height="30" as="geometry" />
        </mxCell>
        <mxCell id="w3yPP5Zh4euitOC8Kssg-95" value="" style="edgeStyle=none;curved=1;rounded=0;orthogonalLoop=1;jettySize=auto;html=1;fontSize=12;startSize=8;endSize=8;" edge="1" parent="w3yPP5Zh4euitOC8Kssg-17" source="w3yPP5Zh4euitOC8Kssg-35" target="w3yPP5Zh4euitOC8Kssg-36">
          <mxGeometry relative="1" as="geometry">
            <Array as="points">
              <mxPoint x="400" y="300" />
            </Array>
          </mxGeometry>
        </mxCell>
        <mxCell id="w3yPP5Zh4euitOC8Kssg-35" value="Load Balancer" style="text;strokeColor=none;fillColor=none;html=1;align=center;verticalAlign=middle;whiteSpace=wrap;rounded=0;fontSize=16;" vertex="1" parent="w3yPP5Zh4euitOC8Kssg-17">
          <mxGeometry x="230" y="247.5" width="130" height="30" as="geometry" />
        </mxCell>
        <mxCell id="w3yPP5Zh4euitOC8Kssg-36" value="web servers" style="text;strokeColor=none;fillColor=none;html=1;align=center;verticalAlign=middle;whiteSpace=wrap;rounded=0;fontSize=16;" vertex="1" parent="w3yPP5Zh4euitOC8Kssg-17">
          <mxGeometry x="433.25" y="251.5" width="100" height="30" as="geometry" />
        </mxCell>
        <mxCell id="w3yPP5Zh4euitOC8Kssg-111" value="Public subnet" style="points=[[0,0],[0.25,0],[0.5,0],[0.75,0],[1,0],[1,0.25],[1,0.5],[1,0.75],[1,1],[0.75,1],[0.5,1],[0.25,1],[0,1],[0,0.75],[0,0.5],[0,0.25]];outlineConnect=0;gradientColor=none;html=1;whiteSpace=wrap;fontSize=12;fontStyle=0;container=1;pointerEvents=0;collapsible=0;recursiveResize=0;shape=mxgraph.aws4.group;grIcon=mxgraph.aws4.group_security_group;grStroke=0;strokeColor=#7AA116;fillColor=#F2F6E8;verticalAlign=top;align=left;spacingLeft=30;fontColor=#248814;dashed=0;" vertex="1" parent="w3yPP5Zh4euitOC8Kssg-17">
          <mxGeometry x="110" y="390" width="240" height="130" as="geometry" />
        </mxCell>
        <mxCell id="w3yPP5Zh4euitOC8Kssg-114" value="" style="outlineConnect=0;dashed=0;verticalLabelPosition=bottom;verticalAlign=top;align=center;html=1;shape=mxgraph.aws3.cloud_2;fillColor=#F58534;gradientColor=none;" vertex="1" parent="w3yPP5Zh4euitOC8Kssg-111">
          <mxGeometry x="30" y="40" width="50" height="50" as="geometry" />
        </mxCell>
        <mxCell id="w3yPP5Zh4euitOC8Kssg-113" value="Private subnet" style="points=[[0,0],[0.25,0],[0.5,0],[0.75,0],[1,0],[1,0.25],[1,0.5],[1,0.75],[1,1],[0.75,1],[0.5,1],[0.25,1],[0,1],[0,0.75],[0,0.5],[0,0.25]];outlineConnect=0;gradientColor=none;html=1;whiteSpace=wrap;fontSize=12;fontStyle=0;container=1;pointerEvents=0;collapsible=0;recursiveResize=0;shape=mxgraph.aws4.group;grIcon=mxgraph.aws4.group_security_group;grStroke=0;strokeColor=#00A4A6;fillColor=#E6F6F7;verticalAlign=top;align=left;spacingLeft=30;fontColor=#147EBA;dashed=0;" vertex="1" parent="w3yPP5Zh4euitOC8Kssg-17">
          <mxGeometry x="360" y="390" width="233" height="130" as="geometry" />
        </mxCell>
        <mxCell id="w3yPP5Zh4euitOC8Kssg-139" value="" style="outlineConnect=0;dashed=0;verticalLabelPosition=bottom;verticalAlign=top;align=center;html=1;shape=mxgraph.aws3.traditional_server;fillColor=#7D7C7C;gradientColor=none;" vertex="1" parent="w3yPP5Zh4euitOC8Kssg-113">
          <mxGeometry x="173.25" y="33.5" width="46.5" height="63" as="geometry" />
        </mxCell>
        <mxCell id="w3yPP5Zh4euitOC8Kssg-138" value="" style="outlineConnect=0;dashed=0;verticalLabelPosition=bottom;verticalAlign=top;align=center;html=1;shape=mxgraph.aws3.traditional_server;fillColor=#7D7C7C;gradientColor=none;" vertex="1" parent="w3yPP5Zh4euitOC8Kssg-113">
          <mxGeometry x="100" y="33.5" width="46.5" height="63" as="geometry" />
        </mxCell>
        <mxCell id="w3yPP5Zh4euitOC8Kssg-115" value="" style="outlineConnect=0;dashed=0;verticalLabelPosition=bottom;verticalAlign=top;align=center;html=1;shape=mxgraph.aws3.classic_load_balancer;fillColor=#F58534;gradientColor=none;" vertex="1" parent="w3yPP5Zh4euitOC8Kssg-17">
          <mxGeometry x="250" y="427.5" width="60" height="55" as="geometry" />
        </mxCell>
        <mxCell id="w3yPP5Zh4euitOC8Kssg-116" value="" style="outlineConnect=0;dashed=0;verticalLabelPosition=bottom;verticalAlign=top;align=center;html=1;shape=mxgraph.aws3.traditional_server;fillColor=#7D7C7C;gradientColor=none;" vertex="1" parent="w3yPP5Zh4euitOC8Kssg-17">
          <mxGeometry x="380" y="423.5" width="46.5" height="63" as="geometry" />
        </mxCell>
        <mxCell id="w3yPP5Zh4euitOC8Kssg-140" value="Bastion Host" style="text;strokeColor=none;fillColor=none;html=1;align=center;verticalAlign=middle;whiteSpace=wrap;rounded=0;fontSize=16;" vertex="1" parent="w3yPP5Zh4euitOC8Kssg-17">
          <mxGeometry x="110" y="482.5" width="110" height="30" as="geometry" />
        </mxCell>
        <mxCell id="w3yPP5Zh4euitOC8Kssg-143" value="" style="edgeStyle=none;curved=1;rounded=0;orthogonalLoop=1;jettySize=auto;html=1;fontSize=12;startSize=8;endSize=8;" edge="1" parent="w3yPP5Zh4euitOC8Kssg-17" source="w3yPP5Zh4euitOC8Kssg-141" target="w3yPP5Zh4euitOC8Kssg-142">
          <mxGeometry relative="1" as="geometry">
            <Array as="points">
              <mxPoint x="390" y="540" />
            </Array>
          </mxGeometry>
        </mxCell>
        <mxCell id="w3yPP5Zh4euitOC8Kssg-141" value="Load Balancer" style="text;strokeColor=none;fillColor=none;html=1;align=center;verticalAlign=middle;whiteSpace=wrap;rounded=0;fontSize=16;" vertex="1" parent="w3yPP5Zh4euitOC8Kssg-17">
          <mxGeometry x="220" y="482.5" width="130" height="30" as="geometry" />
        </mxCell>
        <mxCell id="w3yPP5Zh4euitOC8Kssg-142" value="web servers" style="text;strokeColor=none;fillColor=none;html=1;align=center;verticalAlign=middle;whiteSpace=wrap;rounded=0;fontSize=16;" vertex="1" parent="w3yPP5Zh4euitOC8Kssg-17">
          <mxGeometry x="433.25" y="486.5" width="100" height="30" as="geometry" />
        </mxCell>
        <mxCell id="w3yPP5Zh4euitOC8Kssg-145" value="" style="edgeStyle=none;curved=1;rounded=0;orthogonalLoop=1;jettySize=auto;html=1;fontSize=12;startSize=8;endSize=8;" edge="1" parent="w3yPP5Zh4euitOC8Kssg-17" source="w3yPP5Zh4euitOC8Kssg-114" target="w3yPP5Zh4euitOC8Kssg-115">
          <mxGeometry relative="1" as="geometry" />
        </mxCell>
        <mxCell id="w3yPP5Zh4euitOC8Kssg-179" value="" style="sketch=0;points=[[0,0,0],[0.25,0,0],[0.5,0,0],[0.75,0,0],[1,0,0],[0,1,0],[0.25,1,0],[0.5,1,0],[0.75,1,0],[1,1,0],[0,0.25,0],[0,0.5,0],[0,0.75,0],[1,0.25,0],[1,0.5,0],[1,0.75,0]];outlineConnect=0;fontColor=#232F3E;fillColor=#E7157B;strokeColor=#ffffff;dashed=0;verticalLabelPosition=bottom;verticalAlign=top;align=center;html=1;fontSize=12;fontStyle=0;aspect=fixed;shape=mxgraph.aws4.resourceIcon;resIcon=mxgraph.aws4.api_gateway;" vertex="1" parent="w3yPP5Zh4euitOC8Kssg-17">
          <mxGeometry x="335" width="40" height="40" as="geometry" />
        </mxCell>
        <mxCell id="w3yPP5Zh4euitOC8Kssg-183" value="Canada central region" style="text;strokeColor=none;fillColor=none;html=1;align=center;verticalAlign=middle;whiteSpace=wrap;rounded=0;fontSize=16;" vertex="1" parent="w3yPP5Zh4euitOC8Kssg-17">
          <mxGeometry x="85" width="160" height="30" as="geometry" />
        </mxCell>
        <mxCell id="w3yPP5Zh4euitOC8Kssg-146" value="Region" style="points=[[0,0],[0.25,0],[0.5,0],[0.75,0],[1,0],[1,0.25],[1,0.5],[1,0.75],[1,1],[0.75,1],[0.5,1],[0.25,1],[0,1],[0,0.75],[0,0.5],[0,0.25]];outlineConnect=0;gradientColor=none;html=1;whiteSpace=wrap;fontSize=12;fontStyle=0;container=1;pointerEvents=0;collapsible=0;recursiveResize=0;shape=mxgraph.aws4.group;grIcon=mxgraph.aws4.group_region;strokeColor=#00A4A6;fillColor=none;verticalAlign=top;align=left;spacingLeft=30;fontColor=#147EBA;dashed=1;" vertex="1" parent="1">
          <mxGeometry x="820" y="330" width="700" height="620" as="geometry" />
        </mxCell>
        <mxCell id="w3yPP5Zh4euitOC8Kssg-147" value="Availability zone" style="sketch=0;outlineConnect=0;gradientColor=none;html=1;whiteSpace=wrap;fontSize=12;fontStyle=0;shape=mxgraph.aws4.group;grIcon=mxgraph.aws4.group_availability_zone;strokeColor=#545B64;fillColor=none;verticalAlign=top;align=left;spacingLeft=30;fontColor=#545B64;dashed=1;" vertex="1" parent="w3yPP5Zh4euitOC8Kssg-146">
          <mxGeometry x="70" y="110" width="560" height="200" as="geometry" />
        </mxCell>
        <mxCell id="w3yPP5Zh4euitOC8Kssg-148" value="Availability zone" style="sketch=0;outlineConnect=0;gradientColor=none;html=1;whiteSpace=wrap;fontSize=12;fontStyle=0;shape=mxgraph.aws4.group;grIcon=mxgraph.aws4.group_availability_zone;strokeColor=#545B64;fillColor=none;verticalAlign=top;align=left;spacingLeft=30;fontColor=#545B64;dashed=1;" vertex="1" parent="w3yPP5Zh4euitOC8Kssg-146">
          <mxGeometry x="70" y="340" width="560" height="200" as="geometry" />
        </mxCell>
        <mxCell id="w3yPP5Zh4euitOC8Kssg-149" value="Public subnet" style="points=[[0,0],[0.25,0],[0.5,0],[0.75,0],[1,0],[1,0.25],[1,0.5],[1,0.75],[1,1],[0.75,1],[0.5,1],[0.25,1],[0,1],[0,0.75],[0,0.5],[0,0.25]];outlineConnect=0;gradientColor=none;html=1;whiteSpace=wrap;fontSize=12;fontStyle=0;container=1;pointerEvents=0;collapsible=0;recursiveResize=0;shape=mxgraph.aws4.group;grIcon=mxgraph.aws4.group_security_group;grStroke=0;strokeColor=#7AA116;fillColor=#F2F6E8;verticalAlign=top;align=left;spacingLeft=30;fontColor=#248814;dashed=0;" vertex="1" parent="w3yPP5Zh4euitOC8Kssg-146">
          <mxGeometry x="110" y="150" width="240" height="140" as="geometry" />
        </mxCell>
        <mxCell id="w3yPP5Zh4euitOC8Kssg-150" value="" style="outlineConnect=0;dashed=0;verticalLabelPosition=bottom;verticalAlign=top;align=center;html=1;shape=mxgraph.aws3.cloud_2;fillColor=#F58534;gradientColor=none;" vertex="1" parent="w3yPP5Zh4euitOC8Kssg-149">
          <mxGeometry x="30" y="45" width="50" height="50" as="geometry" />
        </mxCell>
        <mxCell id="w3yPP5Zh4euitOC8Kssg-151" value="Private subnet" style="points=[[0,0],[0.25,0],[0.5,0],[0.75,0],[1,0],[1,0.25],[1,0.5],[1,0.75],[1,1],[0.75,1],[0.5,1],[0.25,1],[0,1],[0,0.75],[0,0.5],[0,0.25]];outlineConnect=0;gradientColor=none;html=1;whiteSpace=wrap;fontSize=12;fontStyle=0;container=1;pointerEvents=0;collapsible=0;recursiveResize=0;shape=mxgraph.aws4.group;grIcon=mxgraph.aws4.group_security_group;grStroke=0;strokeColor=#00A4A6;fillColor=#E6F6F7;verticalAlign=top;align=left;spacingLeft=30;fontColor=#147EBA;dashed=0;" vertex="1" parent="w3yPP5Zh4euitOC8Kssg-146">
          <mxGeometry x="360" y="150" width="233" height="140" as="geometry" />
        </mxCell>
        <mxCell id="w3yPP5Zh4euitOC8Kssg-152" value="" style="edgeStyle=none;curved=1;rounded=0;orthogonalLoop=1;jettySize=auto;html=1;fontSize=12;startSize=8;endSize=8;" edge="1" parent="w3yPP5Zh4euitOC8Kssg-151" source="w3yPP5Zh4euitOC8Kssg-155">
          <mxGeometry relative="1" as="geometry">
            <mxPoint x="150" y="71" as="targetPoint" />
          </mxGeometry>
        </mxCell>
        <mxCell id="w3yPP5Zh4euitOC8Kssg-153" value="" style="outlineConnect=0;dashed=0;verticalLabelPosition=bottom;verticalAlign=top;align=center;html=1;shape=mxgraph.aws3.traditional_server;fillColor=#7D7C7C;gradientColor=none;" vertex="1" parent="w3yPP5Zh4euitOC8Kssg-151">
          <mxGeometry x="20" y="39" width="46.5" height="63" as="geometry" />
        </mxCell>
        <mxCell id="w3yPP5Zh4euitOC8Kssg-154" value="" style="outlineConnect=0;dashed=0;verticalLabelPosition=bottom;verticalAlign=top;align=center;html=1;shape=mxgraph.aws3.traditional_server;fillColor=#7D7C7C;gradientColor=none;" vertex="1" parent="w3yPP5Zh4euitOC8Kssg-151">
          <mxGeometry x="170" y="38.5" width="46.5" height="63" as="geometry" />
        </mxCell>
        <mxCell id="w3yPP5Zh4euitOC8Kssg-155" value="" style="outlineConnect=0;dashed=0;verticalLabelPosition=bottom;verticalAlign=top;align=center;html=1;shape=mxgraph.aws3.traditional_server;fillColor=#7D7C7C;gradientColor=none;" vertex="1" parent="w3yPP5Zh4euitOC8Kssg-151">
          <mxGeometry x="100" y="38.5" width="46.5" height="63" as="geometry" />
        </mxCell>
        <mxCell id="w3yPP5Zh4euitOC8Kssg-156" value="" style="outlineConnect=0;dashed=0;verticalLabelPosition=bottom;verticalAlign=top;align=center;html=1;shape=mxgraph.aws3.classic_load_balancer;fillColor=#F58534;gradientColor=none;" vertex="1" parent="w3yPP5Zh4euitOC8Kssg-146">
          <mxGeometry x="250" y="192.5" width="60" height="55" as="geometry" />
        </mxCell>
        <mxCell id="w3yPP5Zh4euitOC8Kssg-157" value="" style="edgeStyle=none;curved=1;rounded=0;orthogonalLoop=1;jettySize=auto;html=1;fontSize=12;startSize=8;endSize=8;" edge="1" parent="w3yPP5Zh4euitOC8Kssg-146" source="w3yPP5Zh4euitOC8Kssg-150" target="w3yPP5Zh4euitOC8Kssg-156">
          <mxGeometry relative="1" as="geometry" />
        </mxCell>
        <mxCell id="w3yPP5Zh4euitOC8Kssg-158" value="Bastion Host" style="text;strokeColor=none;fillColor=none;html=1;align=center;verticalAlign=middle;whiteSpace=wrap;rounded=0;fontSize=16;" vertex="1" parent="w3yPP5Zh4euitOC8Kssg-146">
          <mxGeometry x="110" y="247.5" width="110" height="30" as="geometry" />
        </mxCell>
        <mxCell id="w3yPP5Zh4euitOC8Kssg-159" value="" style="edgeStyle=none;curved=1;rounded=0;orthogonalLoop=1;jettySize=auto;html=1;fontSize=12;startSize=8;endSize=8;" edge="1" parent="w3yPP5Zh4euitOC8Kssg-146" source="w3yPP5Zh4euitOC8Kssg-160" target="w3yPP5Zh4euitOC8Kssg-161">
          <mxGeometry relative="1" as="geometry">
            <Array as="points">
              <mxPoint x="400" y="300" />
            </Array>
          </mxGeometry>
        </mxCell>
        <mxCell id="w3yPP5Zh4euitOC8Kssg-160" value="Load Balancer" style="text;strokeColor=none;fillColor=none;html=1;align=center;verticalAlign=middle;whiteSpace=wrap;rounded=0;fontSize=16;" vertex="1" parent="w3yPP5Zh4euitOC8Kssg-146">
          <mxGeometry x="230" y="247.5" width="130" height="30" as="geometry" />
        </mxCell>
        <mxCell id="w3yPP5Zh4euitOC8Kssg-161" value="web servers" style="text;strokeColor=none;fillColor=none;html=1;align=center;verticalAlign=middle;whiteSpace=wrap;rounded=0;fontSize=16;" vertex="1" parent="w3yPP5Zh4euitOC8Kssg-146">
          <mxGeometry x="433.25" y="251.5" width="100" height="30" as="geometry" />
        </mxCell>
        <mxCell id="w3yPP5Zh4euitOC8Kssg-162" value="Public subnet" style="points=[[0,0],[0.25,0],[0.5,0],[0.75,0],[1,0],[1,0.25],[1,0.5],[1,0.75],[1,1],[0.75,1],[0.5,1],[0.25,1],[0,1],[0,0.75],[0,0.5],[0,0.25]];outlineConnect=0;gradientColor=none;html=1;whiteSpace=wrap;fontSize=12;fontStyle=0;container=1;pointerEvents=0;collapsible=0;recursiveResize=0;shape=mxgraph.aws4.group;grIcon=mxgraph.aws4.group_security_group;grStroke=0;strokeColor=#7AA116;fillColor=#F2F6E8;verticalAlign=top;align=left;spacingLeft=30;fontColor=#248814;dashed=0;" vertex="1" parent="w3yPP5Zh4euitOC8Kssg-146">
          <mxGeometry x="110" y="390" width="240" height="130" as="geometry" />
        </mxCell>
        <mxCell id="w3yPP5Zh4euitOC8Kssg-163" value="" style="outlineConnect=0;dashed=0;verticalLabelPosition=bottom;verticalAlign=top;align=center;html=1;shape=mxgraph.aws3.cloud_2;fillColor=#F58534;gradientColor=none;" vertex="1" parent="w3yPP5Zh4euitOC8Kssg-162">
          <mxGeometry x="30" y="40" width="50" height="50" as="geometry" />
        </mxCell>
        <mxCell id="w3yPP5Zh4euitOC8Kssg-164" value="Private subnet" style="points=[[0,0],[0.25,0],[0.5,0],[0.75,0],[1,0],[1,0.25],[1,0.5],[1,0.75],[1,1],[0.75,1],[0.5,1],[0.25,1],[0,1],[0,0.75],[0,0.5],[0,0.25]];outlineConnect=0;gradientColor=none;html=1;whiteSpace=wrap;fontSize=12;fontStyle=0;container=1;pointerEvents=0;collapsible=0;recursiveResize=0;shape=mxgraph.aws4.group;grIcon=mxgraph.aws4.group_security_group;grStroke=0;strokeColor=#00A4A6;fillColor=#E6F6F7;verticalAlign=top;align=left;spacingLeft=30;fontColor=#147EBA;dashed=0;" vertex="1" parent="w3yPP5Zh4euitOC8Kssg-146">
          <mxGeometry x="360" y="390" width="233" height="130" as="geometry" />
        </mxCell>
        <mxCell id="w3yPP5Zh4euitOC8Kssg-165" value="" style="outlineConnect=0;dashed=0;verticalLabelPosition=bottom;verticalAlign=top;align=center;html=1;shape=mxgraph.aws3.traditional_server;fillColor=#7D7C7C;gradientColor=none;" vertex="1" parent="w3yPP5Zh4euitOC8Kssg-164">
          <mxGeometry x="173.25" y="33.5" width="46.5" height="63" as="geometry" />
        </mxCell>
        <mxCell id="w3yPP5Zh4euitOC8Kssg-166" value="" style="outlineConnect=0;dashed=0;verticalLabelPosition=bottom;verticalAlign=top;align=center;html=1;shape=mxgraph.aws3.traditional_server;fillColor=#7D7C7C;gradientColor=none;" vertex="1" parent="w3yPP5Zh4euitOC8Kssg-164">
          <mxGeometry x="100" y="33.5" width="46.5" height="63" as="geometry" />
        </mxCell>
        <mxCell id="w3yPP5Zh4euitOC8Kssg-167" value="" style="outlineConnect=0;dashed=0;verticalLabelPosition=bottom;verticalAlign=top;align=center;html=1;shape=mxgraph.aws3.classic_load_balancer;fillColor=#F58534;gradientColor=none;" vertex="1" parent="w3yPP5Zh4euitOC8Kssg-146">
          <mxGeometry x="250" y="427.5" width="60" height="55" as="geometry" />
        </mxCell>
        <mxCell id="w3yPP5Zh4euitOC8Kssg-168" value="" style="outlineConnect=0;dashed=0;verticalLabelPosition=bottom;verticalAlign=top;align=center;html=1;shape=mxgraph.aws3.traditional_server;fillColor=#7D7C7C;gradientColor=none;" vertex="1" parent="w3yPP5Zh4euitOC8Kssg-146">
          <mxGeometry x="380" y="423.5" width="46.5" height="63" as="geometry" />
        </mxCell>
        <mxCell id="w3yPP5Zh4euitOC8Kssg-169" value="Bastion Host" style="text;strokeColor=none;fillColor=none;html=1;align=center;verticalAlign=middle;whiteSpace=wrap;rounded=0;fontSize=16;" vertex="1" parent="w3yPP5Zh4euitOC8Kssg-146">
          <mxGeometry x="110" y="482.5" width="110" height="30" as="geometry" />
        </mxCell>
        <mxCell id="w3yPP5Zh4euitOC8Kssg-170" value="" style="edgeStyle=none;curved=1;rounded=0;orthogonalLoop=1;jettySize=auto;html=1;fontSize=12;startSize=8;endSize=8;" edge="1" parent="w3yPP5Zh4euitOC8Kssg-146" source="w3yPP5Zh4euitOC8Kssg-171" target="w3yPP5Zh4euitOC8Kssg-172">
          <mxGeometry relative="1" as="geometry">
            <Array as="points">
              <mxPoint x="390" y="540" />
            </Array>
          </mxGeometry>
        </mxCell>
        <mxCell id="w3yPP5Zh4euitOC8Kssg-171" value="Load Balancer" style="text;strokeColor=none;fillColor=none;html=1;align=center;verticalAlign=middle;whiteSpace=wrap;rounded=0;fontSize=16;" vertex="1" parent="w3yPP5Zh4euitOC8Kssg-146">
          <mxGeometry x="220" y="482.5" width="130" height="30" as="geometry" />
        </mxCell>
        <mxCell id="w3yPP5Zh4euitOC8Kssg-172" value="web servers" style="text;strokeColor=none;fillColor=none;html=1;align=center;verticalAlign=middle;whiteSpace=wrap;rounded=0;fontSize=16;" vertex="1" parent="w3yPP5Zh4euitOC8Kssg-146">
          <mxGeometry x="433.25" y="486.5" width="100" height="30" as="geometry" />
        </mxCell>
        <mxCell id="w3yPP5Zh4euitOC8Kssg-173" value="" style="edgeStyle=none;curved=1;rounded=0;orthogonalLoop=1;jettySize=auto;html=1;fontSize=12;startSize=8;endSize=8;" edge="1" parent="w3yPP5Zh4euitOC8Kssg-146" source="w3yPP5Zh4euitOC8Kssg-163" target="w3yPP5Zh4euitOC8Kssg-167">
          <mxGeometry relative="1" as="geometry" />
        </mxCell>
        <mxCell id="w3yPP5Zh4euitOC8Kssg-189" value="Internet Gateway" style="text;strokeColor=none;fillColor=none;html=1;align=center;verticalAlign=middle;whiteSpace=wrap;rounded=0;fontSize=16;" vertex="1" parent="w3yPP5Zh4euitOC8Kssg-146">
          <mxGeometry x="380" y="20" width="120" height="30" as="geometry" />
        </mxCell>
        <mxCell id="w3yPP5Zh4euitOC8Kssg-174" value="VPC" style="points=[[0,0],[0.25,0],[0.5,0],[0.75,0],[1,0],[1,0.25],[1,0.5],[1,0.75],[1,1],[0.75,1],[0.5,1],[0.25,1],[0,1],[0,0.75],[0,0.5],[0,0.25]];outlineConnect=0;gradientColor=none;html=1;whiteSpace=wrap;fontSize=12;fontStyle=0;container=1;pointerEvents=0;collapsible=0;recursiveResize=0;shape=mxgraph.aws4.group;grIcon=mxgraph.aws4.group_vpc2;strokeColor=#8C4FFF;fillColor=none;verticalAlign=top;align=left;spacingLeft=30;fontColor=#AAB7B8;dashed=0;" vertex="1" parent="1">
          <mxGeometry x="850" y="390" width="640" height="520" as="geometry" />
        </mxCell>
        <mxCell id="w3yPP5Zh4euitOC8Kssg-188" value="Joe West Central VPC (192.168.1.0/24)&lt;div&gt;&lt;br&gt;&lt;/div&gt;" style="text;strokeColor=none;fillColor=none;html=1;align=center;verticalAlign=middle;whiteSpace=wrap;rounded=0;fontSize=16;" vertex="1" parent="w3yPP5Zh4euitOC8Kssg-174">
          <mxGeometry x="60" y="10" width="330" height="30" as="geometry" />
        </mxCell>
        <mxCell id="w3yPP5Zh4euitOC8Kssg-177" value="&lt;span style=&quot;color: rgb(178, 190, 198); font-family: Roboto, sans-serif; text-align: left; background-color: rgb(18, 18, 18);&quot;&gt;IP: 192.168.0.0/16&lt;/span&gt;" style="text;strokeColor=none;fillColor=none;html=1;align=center;verticalAlign=middle;whiteSpace=wrap;rounded=0;fontSize=16;" vertex="1" parent="1">
          <mxGeometry x="130" y="280" width="160" height="30" as="geometry" />
        </mxCell>
        <mxCell id="w3yPP5Zh4euitOC8Kssg-180" value="" style="edgeStyle=none;curved=1;rounded=0;orthogonalLoop=1;jettySize=auto;html=1;fontSize=12;startSize=8;endSize=8;" edge="1" parent="1" source="w3yPP5Zh4euitOC8Kssg-179" target="w3yPP5Zh4euitOC8Kssg-16">
          <mxGeometry relative="1" as="geometry" />
        </mxCell>
        <mxCell id="w3yPP5Zh4euitOC8Kssg-182" value="" style="edgeStyle=none;curved=1;rounded=0;orthogonalLoop=1;jettySize=auto;html=1;fontSize=12;startSize=8;endSize=8;" edge="1" parent="1" source="w3yPP5Zh4euitOC8Kssg-181" target="w3yPP5Zh4euitOC8Kssg-174">
          <mxGeometry relative="1" as="geometry" />
        </mxCell>
        <mxCell id="w3yPP5Zh4euitOC8Kssg-181" value="" style="sketch=0;points=[[0,0,0],[0.25,0,0],[0.5,0,0],[0.75,0,0],[1,0,0],[0,1,0],[0.25,1,0],[0.5,1,0],[0.75,1,0],[1,1,0],[0,0.25,0],[0,0.5,0],[0,0.75,0],[1,0.25,0],[1,0.5,0],[1,0.75,0]];outlineConnect=0;fontColor=#232F3E;fillColor=#E7157B;strokeColor=#ffffff;dashed=0;verticalLabelPosition=bottom;verticalAlign=top;align=center;html=1;fontSize=12;fontStyle=0;aspect=fixed;shape=mxgraph.aws4.resourceIcon;resIcon=mxgraph.aws4.api_gateway;" vertex="1" parent="1">
          <mxGeometry x="1180" y="330" width="40" height="40" as="geometry" />
        </mxCell>
        <mxCell id="w3yPP5Zh4euitOC8Kssg-184" value="Canada West Region" style="text;strokeColor=none;fillColor=none;html=1;align=center;verticalAlign=middle;whiteSpace=wrap;rounded=0;fontSize=16;" vertex="1" parent="1">
          <mxGeometry x="910" y="330" width="160" height="30" as="geometry" />
        </mxCell>
        <mxCell id="w3yPP5Zh4euitOC8Kssg-187" value="Joe Canada Central VPC (192.168.1.0/24)&lt;div&gt;&lt;br&gt;&lt;/div&gt;" style="text;strokeColor=none;fillColor=none;html=1;align=center;verticalAlign=middle;whiteSpace=wrap;rounded=0;fontSize=16;" vertex="1" parent="1">
          <mxGeometry x="130" y="400" width="330" height="30" as="geometry" />
        </mxCell>
        <mxCell id="w3yPP5Zh4euitOC8Kssg-190" value="Internet Gateway" style="text;strokeColor=none;fillColor=none;html=1;align=center;verticalAlign=middle;whiteSpace=wrap;rounded=0;fontSize=16;" vertex="1" parent="1">
          <mxGeometry x="400" y="350" width="120" height="40" as="geometry" />
        </mxCell>
      </root>
    </mxGraphModel>
  </diagram>
</mxfile>
